<svg width="40" height="40" viewBox="0 0 40 40" fill="none" xmlns="http://www.w3.org/2000/svg">
<rect x="2" y="2" width="36" height="36" rx="18" fill="#E0E2E7"/>
<rect x="2" y="2" width="36" height="36" rx="18" stroke="#F0F1F3" stroke-width="4"/>
<path d="M23.9668 18.4475C24.352 18.0517 24.3434 17.4186 23.9476 17.0334C23.5519 16.6482 22.9188 16.6568 22.5335 17.0525L19.2738 20.4017L17.8756 19.2809C17.4447 18.9354 16.8153 19.0047 16.4699 19.4356C16.1245 19.8666 16.1938 20.4959 16.6247 20.8414L19.0858 22.8143C19.2868 22.9754 19.5772 22.9575 19.7569 22.7729L23.9668 18.4475Z" fill="#667085"/>
<path fill-rule="evenodd" clip-rule="evenodd" d="M18.6095 10.3453C19.3848 9.5952 20.6153 9.5952 21.3907 10.3453L22.7194 11.6307L24.55 11.3718C25.6181 11.2207 26.6136 11.944 26.8 13.0065L27.1194 14.8275L28.7526 15.694C29.7055 16.1996 30.0857 17.3699 29.612 18.3391L28.8001 20L29.612 21.661C30.0857 22.6301 29.7055 23.8004 28.7526 24.306L27.1194 25.1725L26.8 26.9935C26.6136 28.056 25.6181 28.7793 24.55 28.6282L22.7194 28.3693L21.3907 29.6547C20.6153 30.4048 19.3848 30.4048 18.6095 29.6547L17.2807 28.3693L15.4502 28.6282C14.382 28.7793 13.3865 28.056 13.2001 26.9935L12.8807 25.1725L11.2476 24.306C10.2946 23.8004 9.91438 22.6301 10.3881 21.661L11.2001 20L10.3881 18.3391C9.91438 17.3699 10.2946 16.1996 11.2476 15.694L12.8807 14.8275L13.2001 13.0065C13.3865 11.944 14.382 11.2207 15.4502 11.3718L17.2807 11.6307L18.6095 10.3453ZM20.0001 11.7827L22.0315 13.7479L24.8301 13.3521L25.3184 16.136L27.8152 17.4607L26.5739 20L27.8152 22.5393L25.3184 23.864L24.8301 26.6479L22.0315 26.2521L20.0001 28.2173L17.9686 26.2521L15.1701 26.6479L14.6817 23.864L12.185 22.5393L13.4262 20L12.185 17.4607L14.6817 16.136L15.1701 13.3521L17.9686 13.7479L20.0001 11.7827Z" fill="#667085"/>
</svg>
